<svg xmlns="http://www.w3.org/2000/svg" viewBox="0 0 150 150"><g id="Layer_9" data-name="Layer 9"><path d="M141.09,73.73c-1.8,8.28-4.82,17.86-12.72,26.21s-14.06,10.9-18,13.21c-7.59,4.46-28.21,6.91-33.42,6.94-6.94,0-8.33,2.24-8.94,8.91-.38,4.11-.45,11.84-.31,17.18a2.61,2.61,0,0,1-2.31,2.87H11.46a2.58,2.58,0,0,1-2.31-2.78s1-35.76,1-49c.1-26.59-.44-53.15-.63-79.74-.05-5.21-.07-10.4-.07-15.61C9.48,1,9.81.7,10.68.7h91.13c5.75,0,13.61.85,24.37,9.24s15,24.3,16.18,34.23C143,49.36,142.15,68.64,141.09,73.73Z" style="fill:#3951a3"/><path d="M51.22,93.45l.34-1.07Q55.85,79.18,60.13,66c.17-.52.24-.38-.25-.73L36.8,48.49a1,1,0,0,1-.27-.29h29c.34,0,.31.07.44-.33,1-3,1.94-5.95,2.9-8.93q3-9.13,5.93-18.27l.13-.35a.62.62,0,0,1,.16.35c1.63,5,3.24,10,4.87,15q1.95,6,3.92,12.1A1.11,1.11,0,0,1,84,48c0,.16.12.25.3.22a2.43,2.43,0,0,1,.27,0h28.89l0,.07-.29.21L90.07,65.28l-.09.07c-.27.19-.3.12-.17.52l5.82,17.94q1.52,4.65,3,9.3a.57.57,0,0,1,.07.36l-.37-.27-23-16.72-.07,0c-.31-.22-.23-.22-.55,0L57.82,88.71l-6.25,4.54A1,1,0,0,1,51.22,93.45Z" style="fill:#feda10"/></g></svg>